<svg width="541" height="173.12" viewBox="0 0 450 144" class="css-1j8o68f"><defs id="SvgjsDefs1108"><linearGradient id="SvgjsLinearGradient1115"><stop id="SvgjsStop1116" stop-color="#8f5e25" offset="0"></stop><stop id="SvgjsStop1117" stop-color="#fbf4a1" offset="0.5"></stop><stop id="SvgjsStop1118" stop-color="#8f5e25" offset="1"></stop></linearGradient><linearGradient id="SvgjsLinearGradient1119"><stop id="SvgjsStop1120" stop-color="#8f5e25" offset="0"></stop><stop id="SvgjsStop1121" stop-color="#fbf4a1" offset="0.5"></stop><stop id="SvgjsStop1122" stop-color="#8f5e25" offset="1"></stop></linearGradient><linearGradient id="SvgjsLinearGradient1123"><stop id="SvgjsStop1124" stop-color="#8f5e25" offset="0"></stop><stop id="SvgjsStop1125" stop-color="#fbf4a1" offset="0.5"></stop><stop id="SvgjsStop1126" stop-color="#8f5e25" offset="1"></stop></linearGradient></defs><g id="SvgjsG1109" featurekey="symbolContainer" transform="matrix(0.7181758491234574,0,0,0.7181758491234574,306,0)" fill="url(#SvgjsLinearGradient1115)"><path xmlns="http://www.w3.org/2000/svg" d="M100.254 0C44.974 0 0 44.974 0 100.254s44.974 100.254 100.254 100.254c55.28 0 100.254-44.974 100.254-100.254S155.534 0 100.254 0zm0 195.508C47.731 195.508 5 152.777 5 100.254S47.731 5 100.254 5s95.254 42.73 95.254 95.254-42.731 95.254-95.254 95.254z"></path></g><g id="SvgjsG1110" featurekey="monogramFeature-0" transform="matrix(0.8085488580106975,0,0,0.8085488580106975,345.02974229569793,40.49463459766097)" fill="url(#SvgjsLinearGradient1119)"><path d="M14.52 25.799999999999997 l14.34 0 l0 -5.7 l-25.5 0 l0 1.86 l23.46 0 l0 2.16 l-25.62 0 l0 -6.18 l29.82 0 l0 10.02 l-14.34 0 l0 28.08 l-2.16 0 l0 -30.24 z M10.5 27.96 l-9.3 0 l0 -2.16 l11.46 0 l0 31.98 l6 0 l0 -27.96 l2.16 0 l0 30.18 l-10.32 0 l0 -32.04 z M38.339999999999996 20.22 l6.78 0 l10.44 21.72 l1.26 -2.58 l-10.32 -21.36 l-11.7 0 l20.22 42 l1.02 0 l19.26 -39.78 l2.1 0 l-19.32 39.78 l2.46 0 l20.4 -42 l-7.02 0 l-18.36 37.8 z M55.62 51.66 l16.26 -33.66 l-2.52 0 l-13.74 28.56 l-11.82 -24.42 l-2.46 0 z"></path></g></svg>